{
	"asset":
	{
		"version": "2.0",
		"generator": "Unreal Engine 5.3.2"
	},
	"scene": 0,
	"accessors": [
		{
			"bufferView": 0,
			"count": 5,
			"type": "MAT4",
			"componentType": 5126
		},
		{
			"bufferView": 1,
			"count": 10230,
			"type": "SCALAR",
			"componentType": 5123
		},
		{
			"bufferView": 2,
			"count": 7028,
			"type": "VEC3",
			"componentType": 5126,
			"min": [ -1.55317259, -0.000387683016, -1.15234792 ],
			"max": [ 1.67356849, 1.82613826, 1.15234792 ]
		},
		{
			"bufferView": 3,
			"count": 7028,
			"type": "VEC3",
			"componentType": 5126
		},
		{
			"bufferView": 4,
			"count": 7028,
			"type": "VEC4",
			"componentType": 5126
		},
		{
			"bufferView": 5,
			"count": 7028,
			"type": "VEC2",
			"componentType": 5126
		},
		{
			"bufferView": 6,
			"count": 7028,
			"type": "VEC4",
			"componentType": 5121
		},
		{
			"bufferView": 7,
			"count": 7028,
			"type": "VEC4",
			"componentType": 5121,
			"normalized": true
		}
	],
	"buffers": [
		{
			"uri": "car1.bin",
			"byteLength": 414348
		}
	],
	"bufferViews": [
		{
			"buffer": 0,
			"byteLength": 320
		},
		{
			"buffer": 0,
			"byteLength": 20460,
			"byteOffset": 320,
			"target": 34963
		},
		{
			"buffer": 0,
			"byteLength": 84336,
			"byteOffset": 20780,
			"target": 34962
		},
		{
			"buffer": 0,
			"byteLength": 84336,
			"byteOffset": 105116,
			"target": 34962
		},
		{
			"buffer": 0,
			"byteLength": 112448,
			"byteOffset": 189452,
			"target": 34962
		},
		{
			"buffer": 0,
			"byteLength": 56224,
			"byteOffset": 301900,
			"target": 34962
		},
		{
			"buffer": 0,
			"byteLength": 28112,
			"byteOffset": 358124,
			"target": 34962
		},
		{
			"buffer": 0,
			"byteLength": 28112,
			"byteOffset": 386236,
			"target": 34962
		}
	],
	"images": [
		{
			"uri": "MI_Atlas_01_MetallicRoughness.png"
		},
		{
			"uri": "T_Atlas_01_BC.png"
		}
	],
	"materials": [
		{
			"name": "MI_Atlas_01",
			"pbrMetallicRoughness":
			{
				"baseColorTexture":
				{
					"index": 0
				},
				"metallicRoughnessTexture":
				{
					"index": 1
				}
			}
		}
	],
	"meshes": [
		{
			"name": "SK_Car_01",
			"primitives": [
				{
					"attributes":
					{
						"POSITION": 2,
						"NORMAL": 3,
						"TANGENT": 4,
						"TEXCOORD_0": 5,
						"JOINTS_0": 6,
						"WEIGHTS_0": 7
					},
					"indices": 1,
					"material": 0
				}
			]
		}
	],
	"nodes": [
		{
			"skin": 0,
			"mesh": 0,
			"children": [ 1 ]
		},
		{
			"name": "Car_01_Root",
			"translation": [ 0, 0.699999988, 0 ],
			"rotation": [ 0.707106709, -0, -0, 0.707106829 ],
			"children": [ 2, 3, 4, 5 ]
		},
		{
			"name": "LT_Rear",
			"translation": [ -0.875722647, -0.799999952, 0.365999967 ]
		},
		{
			"name": "LT_Front",
			"translation": [ 0.76727736, -0.799999952, 0.366019726 ]
		},
		{
			"name": "RT_Front",
			"translation": [ 0.76727736, 0.799999952, 0.365999967 ]
		},
		{
			"name": "RT_Rear",
			"translation": [ -0.875722647, 0.799999952, 0.366019726 ]
		}
	],
	"samplers": [
		{
			"minFilter": 9987,
			"magFilter": 9729
		}
	],
	"scenes": [
		{
			"nodes": [ 0 ]
		}
	],
	"skins": [
		{
			"name": "SK_Car_01",
			"inverseBindMatrices": 0,
			"skeleton": 0,
			"joints": [ 1, 2, 3, 4, 5 ]
		}
	],
	"textures": [
		{
			"name": "T_Atlas_01_BC",
			"sampler": 0,
			"source": 1
		},
		{
			"name": "MI_Atlas_01_MetallicRoughness",
			"sampler": 0,
			"source": 0
		}
	]
}