{
	"asset":
	{
		"version": "2.0",
		"generator": "Unreal Engine 5.3.2"
	},
	"scene": 0,
	"accessors": [
		{
			"bufferView": 0,
			"count": 5,
			"type": "MAT4",
			"componentType": 5126
		},
		{
			"bufferView": 1,
			"count": 9912,
			"type": "SCALAR",
			"componentType": 5123
		},
		{
			"bufferView": 2,
			"count": 6783,
			"type": "VEC3",
			"componentType": 5126,
			"min": [ -1.56251395, -1.23474777e-07, -0.971632361 ],
			"max": [ 1.72480965, 2.08955526, 0.971632361 ]
		},
		{
			"bufferView": 3,
			"count": 6783,
			"type": "VEC3",
			"componentType": 5126
		},
		{
			"bufferView": 4,
			"count": 6783,
			"type": "VEC4",
			"componentType": 5126
		},
		{
			"bufferView": 5,
			"count": 6783,
			"type": "VEC2",
			"componentType": 5126
		},
		{
			"bufferView": 6,
			"count": 6783,
			"type": "VEC2",
			"componentType": 5126
		},
		{
			"bufferView": 7,
			"count": 6783,
			"type": "VEC4",
			"componentType": 5121
		},
		{
			"bufferView": 8,
			"count": 6783,
			"type": "VEC4",
			"componentType": 5121,
			"normalized": true
		}
	],
	"buffers": [
		{
			"uri": "car2.bin",
			"byteLength": 454256
		}
	],
	"bufferViews": [
		{
			"buffer": 0,
			"byteLength": 320
		},
		{
			"buffer": 0,
			"byteLength": 19824,
			"byteOffset": 320,
			"target": 34963
		},
		{
			"buffer": 0,
			"byteLength": 81396,
			"byteOffset": 20144,
			"target": 34962
		},
		{
			"buffer": 0,
			"byteLength": 81396,
			"byteOffset": 101540,
			"target": 34962
		},
		{
			"buffer": 0,
			"byteLength": 108528,
			"byteOffset": 182936,
			"target": 34962
		},
		{
			"buffer": 0,
			"byteLength": 54264,
			"byteOffset": 291464,
			"target": 34962
		},
		{
			"buffer": 0,
			"byteLength": 54264,
			"byteOffset": 345728,
			"target": 34962
		},
		{
			"buffer": 0,
			"byteLength": 27132,
			"byteOffset": 399992,
			"target": 34962
		},
		{
			"buffer": 0,
			"byteLength": 27132,
			"byteOffset": 427124,
			"target": 34962
		}
	],
	"images": [
		{
			"uri": "MI_Atlas_01_MetallicRoughness.png"
		},
		{
			"uri": "T_Atlas_01_BC.png"
		}
	],
	"materials": [
		{
			"name": "MI_Atlas_01",
			"pbrMetallicRoughness":
			{
				"baseColorTexture":
				{
					"index": 0
				},
				"metallicRoughnessTexture":
				{
					"index": 1
				}
			}
		}
	],
	"meshes": [
		{
			"name": "SK_Car_02",
			"primitives": [
				{
					"attributes":
					{
						"POSITION": 2,
						"NORMAL": 3,
						"TANGENT": 4,
						"TEXCOORD_0": 5,
						"TEXCOORD_1": 6,
						"JOINTS_0": 7,
						"WEIGHTS_0": 8
					},
					"indices": 1,
					"material": 0
				}
			]
		}
	],
	"nodes": [
		{
			"skin": 0,
			"mesh": 0,
			"children": [ 1 ]
		},
		{
			"name": "Car_02_Root",
			"translation": [ 0, 0.699999988, 0 ],
			"rotation": [ 0.707106709, -0, -0, 0.707106829 ],
			"children": [ 2, 3, 4, 5 ]
		},
		{
			"name": "LT_Rear",
			"translation": [ -0.859121084, -0.649999976, 0.415787339 ]
		},
		{
			"name": "LT_Front",
			"translation": [ 0.695727348, -0.649999976, 0.415787339 ]
		},
		{
			"name": "RT_Front",
			"translation": [ 0.695727348, 0.649999976, 0.415787339 ]
		},
		{
			"name": "RT_Rear",
			"translation": [ -0.859121084, 0.649999976, 0.415787339 ]
		}
	],
	"samplers": [
		{
			"minFilter": 9987,
			"magFilter": 9729
		}
	],
	"scenes": [
		{
			"nodes": [ 0 ]
		}
	],
	"skins": [
		{
			"name": "SK_Car_02",
			"inverseBindMatrices": 0,
			"skeleton": 0,
			"joints": [ 1, 2, 3, 4, 5 ]
		}
	],
	"textures": [
		{
			"name": "T_Atlas_01_BC",
			"sampler": 0,
			"source": 1
		},
		{
			"name": "MI_Atlas_01_MetallicRoughness",
			"sampler": 0,
			"source": 0
		}
	]
}