{
	"asset":
	{
		"version": "2.0",
		"generator": "Unreal Engine 5.3.2"
	},
	"scene": 0,
	"accessors": [
		{
			"bufferView": 0,
			"count": 5,
			"type": "MAT4",
			"componentType": 5126
		},
		{
			"bufferView": 1,
			"count": 9966,
			"type": "SCALAR",
			"componentType": 5123
		},
		{
			"bufferView": 2,
			"count": 6750,
			"type": "VEC3",
			"componentType": 5126,
			"min": [ -2.14295769, -5.44433665e-10, -1.26985526 ],
			"max": [ 2.0883925, 3.05006337, 1.26985526 ]
		},
		{
			"bufferView": 3,
			"count": 6750,
			"type": "VEC3",
			"componentType": 5126
		},
		{
			"bufferView": 4,
			"count": 6750,
			"type": "VEC4",
			"componentType": 5126
		},
		{
			"bufferView": 5,
			"count": 6750,
			"type": "VEC2",
			"componentType": 5126
		},
		{
			"bufferView": 6,
			"count": 6750,
			"type": "VEC2",
			"componentType": 5126
		},
		{
			"bufferView": 7,
			"count": 6750,
			"type": "VEC4",
			"componentType": 5121
		},
		{
			"bufferView": 8,
			"count": 6750,
			"type": "VEC4",
			"componentType": 5121,
			"normalized": true
		}
	],
	"buffers": [
		{
			"uri": "car4.bin",
			"byteLength": 452252
		}
	],
	"bufferViews": [
		{
			"buffer": 0,
			"byteLength": 320
		},
		{
			"buffer": 0,
			"byteLength": 19932,
			"byteOffset": 320,
			"target": 34963
		},
		{
			"buffer": 0,
			"byteLength": 81000,
			"byteOffset": 20252,
			"target": 34962
		},
		{
			"buffer": 0,
			"byteLength": 81000,
			"byteOffset": 101252,
			"target": 34962
		},
		{
			"buffer": 0,
			"byteLength": 108000,
			"byteOffset": 182252,
			"target": 34962
		},
		{
			"buffer": 0,
			"byteLength": 54000,
			"byteOffset": 290252,
			"target": 34962
		},
		{
			"buffer": 0,
			"byteLength": 54000,
			"byteOffset": 344252,
			"target": 34962
		},
		{
			"buffer": 0,
			"byteLength": 27000,
			"byteOffset": 398252,
			"target": 34962
		},
		{
			"buffer": 0,
			"byteLength": 27000,
			"byteOffset": 425252,
			"target": 34962
		}
	],
	"images": [
		{
			"uri": "MI_Atlas_01_MetallicRoughness.png"
		},
		{
			"uri": "T_Atlas_01_BC.png"
		}
	],
	"materials": [
		{
			"name": "MI_Atlas_01",
			"pbrMetallicRoughness":
			{
				"baseColorTexture":
				{
					"index": 0
				},
				"metallicRoughnessTexture":
				{
					"index": 1
				}
			}
		}
	],
	"meshes": [
		{
			"name": "SK_Car_04",
			"primitives": [
				{
					"attributes":
					{
						"POSITION": 2,
						"NORMAL": 3,
						"TANGENT": 4,
						"TEXCOORD_0": 5,
						"TEXCOORD_1": 6,
						"JOINTS_0": 7,
						"WEIGHTS_0": 8
					},
					"indices": 1,
					"material": 0
				}
			]
		}
	],
	"nodes": [
		{
			"skin": 0,
			"mesh": 0,
			"children": [ 1 ]
		},
		{
			"name": "Car_04_Root",
			"translation": [ 0, 0.699999988, 0 ],
			"rotation": [ 0.707106709, -0, -0, 0.707106829 ],
			"children": [ 2, 3, 4, 5 ]
		},
		{
			"name": "LT_Rear",
			"translation": [ -1.27032769, -0.899999976, 0.399068862 ]
		},
		{
			"name": "LT_Front",
			"translation": [ 1.33606291, -0.870000005, 0.399068862 ]
		},
		{
			"name": "RT_Front",
			"translation": [ 1.33606291, 0.870000005, 0.399068862 ]
		},
		{
			"name": "RT_Rear",
			"translation": [ -1.27032769, 0.899999976, 0.399068862 ]
		}
	],
	"samplers": [
		{
			"minFilter": 9987,
			"magFilter": 9729
		}
	],
	"scenes": [
		{
			"nodes": [ 0 ]
		}
	],
	"skins": [
		{
			"name": "SK_Car_04",
			"inverseBindMatrices": 0,
			"skeleton": 0,
			"joints": [ 1, 2, 3, 4, 5 ]
		}
	],
	"textures": [
		{
			"name": "T_Atlas_01_BC",
			"sampler": 0,
			"source": 1
		},
		{
			"name": "MI_Atlas_01_MetallicRoughness",
			"sampler": 0,
			"source": 0
		}
	]
}