{
	"asset":{
		"generator":"Khronos glTF Blender I/O v4.1.63",
		"version":"2.0"
	},
	"scene":0,
	"scenes":[
		{
			"name":"Scene",
			"nodes":[
				0
			]
		}
	],
	"nodes":[
		{
			"mesh":0,
			"name":"SM_House_31",
			"rotation":[
				0,
				-0.7071072459220886,
				0,
				0.7071062922477722
			],
			"translation":[
				43.209930419921875,
				1,
				-13.699554443359375
			]
		}
	],
	"materials":[
		{
			"name":"MI_Atlas_02",
			"pbrMetallicRoughness":{
				"baseColorTexture":{
					"index":0
				},
				"metallicRoughnessTexture":{
					"index":1
				}
			}
		},
		{
			"name":"MI_Atlas_Road_03",
			"pbrMetallicRoughness":{
				"baseColorTexture":{
					"index":2
				},
				"metallicRoughnessTexture":{
					"index":3
				}
			}
		},
		{
			"name":"MI_Atlas_01",
			"pbrMetallicRoughness":{
				"baseColorTexture":{
					"index":4
				},
				"metallicRoughnessTexture":{
					"index":5
				}
			}
		},
		{
			"name":"MI_Atlas_Road_01",
			"pbrMetallicRoughness":{
				"baseColorTexture":{
					"index":6
				},
				"metallicRoughnessTexture":{
					"index":7
				}
			}
		},
		{
			"name":"MI_Atlas_03",
			"pbrMetallicRoughness":{
				"baseColorTexture":{
					"index":8
				},
				"metallicRoughnessTexture":{
					"index":9
				}
			}
		},
		{
			"name":"MI_Atlas_04",
			"pbrMetallicRoughness":{
				"baseColorTexture":{
					"index":10
				},
				"metallicRoughnessTexture":{
					"index":11
				}
			}
		},
		{
			"name":"MI_Atlas_Road_02",
			"pbrMetallicRoughness":{
				"baseColorTexture":{
					"index":12
				},
				"metallicRoughnessTexture":{
					"index":13
				}
			}
		},
		{
			"name":"MI_Atlas_Road_04",
			"pbrMetallicRoughness":{
				"baseColorTexture":{
					"index":14
				},
				"metallicRoughnessTexture":{
					"index":15
				}
			}
		},
		{
			"emissiveFactor":[
				1,
				1,
				1
			],
			"emissiveTexture":{
				"index":16
			},
			"name":"MI_Atlas_Road_04_E",
			"pbrMetallicRoughness":{
				"baseColorTexture":{
					"index":17
				},
				"metallicRoughnessTexture":{
					"index":18
				}
			}
		},
		{
			"emissiveFactor":[
				1,
				1,
				1
			],
			"emissiveTexture":{
				"index":19
			},
			"name":"MI_Atlas_Road_03_E",
			"pbrMetallicRoughness":{
				"baseColorTexture":{
					"index":20
				},
				"metallicRoughnessTexture":{
					"index":21
				}
			}
		},
		{
			"emissiveFactor":[
				1,
				1,
				1
			],
			"emissiveTexture":{
				"index":22
			},
			"name":"MI_Atlas_Road_02_E",
			"pbrMetallicRoughness":{
				"baseColorTexture":{
					"index":23
				},
				"metallicRoughnessTexture":{
					"index":24
				}
			}
		},
		{
			"emissiveFactor":[
				1,
				1,
				1
			],
			"emissiveTexture":{
				"index":25
			},
			"name":"MI_Atlas_Road_01_E",
			"pbrMetallicRoughness":{
				"baseColorTexture":{
					"index":26
				},
				"metallicRoughnessTexture":{
					"index":27
				}
			}
		}
	],
	"meshes":[
		{
			"name":"SM_House_19",
			"primitives":[
				{
					"attributes":{
						"POSITION":0,
						"NORMAL":1,
						"TEXCOORD_0":2,
						"TEXCOORD_1":3
					},
					"indices":4,
					"material":0
				},
				{
					"attributes":{
						"POSITION":5,
						"NORMAL":6,
						"TEXCOORD_0":7,
						"TEXCOORD_1":8
					},
					"indices":9,
					"material":1
				},
				{
					"attributes":{
						"POSITION":10,
						"NORMAL":11,
						"TEXCOORD_0":12,
						"TEXCOORD_1":13
					},
					"indices":14,
					"material":2
				},
				{
					"attributes":{
						"POSITION":15,
						"NORMAL":16,
						"TEXCOORD_0":17,
						"TEXCOORD_1":18
					},
					"indices":19,
					"material":3
				},
				{
					"attributes":{
						"POSITION":20,
						"NORMAL":21,
						"TEXCOORD_0":22,
						"TEXCOORD_1":23
					},
					"indices":24,
					"material":4
				},
				{
					"attributes":{
						"POSITION":25,
						"NORMAL":26,
						"TEXCOORD_0":27,
						"TEXCOORD_1":28
					},
					"indices":29,
					"material":5
				},
				{
					"attributes":{
						"POSITION":30,
						"NORMAL":31,
						"TEXCOORD_0":32,
						"TEXCOORD_1":33
					},
					"indices":34,
					"material":6
				},
				{
					"attributes":{
						"POSITION":35,
						"NORMAL":36,
						"TEXCOORD_0":37,
						"TEXCOORD_1":38
					},
					"indices":39,
					"material":7
				},
				{
					"attributes":{
						"POSITION":40,
						"NORMAL":41,
						"TEXCOORD_0":42,
						"TEXCOORD_1":43
					},
					"indices":44,
					"material":8
				},
				{
					"attributes":{
						"POSITION":45,
						"NORMAL":46,
						"TEXCOORD_0":47,
						"TEXCOORD_1":48
					},
					"indices":49,
					"material":9
				},
				{
					"attributes":{
						"POSITION":50,
						"NORMAL":51,
						"TEXCOORD_0":52,
						"TEXCOORD_1":53
					},
					"indices":54,
					"material":10
				},
				{
					"attributes":{
						"POSITION":55,
						"NORMAL":56,
						"TEXCOORD_0":57,
						"TEXCOORD_1":58
					},
					"indices":59,
					"material":11
				}
			]
		}
	],
	"textures":[
		{
			"sampler":0,
			"source":0
		},
		{
			"sampler":0,
			"source":1
		},
		{
			"sampler":0,
			"source":2
		},
		{
			"sampler":0,
			"source":3
		},
		{
			"sampler":0,
			"source":4
		},
		{
			"sampler":0,
			"source":1
		},
		{
			"sampler":0,
			"source":5
		},
		{
			"sampler":0,
			"source":3
		},
		{
			"sampler":0,
			"source":6
		},
		{
			"sampler":0,
			"source":1
		},
		{
			"sampler":0,
			"source":7
		},
		{
			"sampler":0,
			"source":1
		},
		{
			"sampler":0,
			"source":8
		},
		{
			"sampler":0,
			"source":3
		},
		{
			"sampler":0,
			"source":9
		},
		{
			"sampler":0,
			"source":3
		},
		{
			"sampler":0,
			"source":10
		},
		{
			"sampler":0,
			"source":9
		},
		{
			"sampler":0,
			"source":3
		},
		{
			"sampler":0,
			"source":11
		},
		{
			"sampler":0,
			"source":2
		},
		{
			"sampler":0,
			"source":3
		},
		{
			"sampler":0,
			"source":12
		},
		{
			"sampler":0,
			"source":8
		},
		{
			"sampler":0,
			"source":3
		},
		{
			"sampler":0,
			"source":13
		},
		{
			"sampler":0,
			"source":5
		},
		{
			"sampler":0,
			"source":3
		}
	],
	"images":[
		{
			"mimeType":"image/png",
			"name":"T_Atlas_02_BC",
			"uri":"T_Atlas_02_BC.png"
		},
		{
			"mimeType":"image/png",
			"name":"MI_Atlas_02_MetallicRoughness",
			"uri":"MI_Atlas_02_MetallicRoughness.png"
		},
		{
			"mimeType":"image/png",
			"name":"T_Atlas_Road_03_BC",
			"uri":"T_Atlas_Road_03_BC.png"
		},
		{
			"mimeType":"image/png",
			"name":"MI_Atlas_Road_03_MetallicRoughness",
			"uri":"MI_Atlas_Road_03_MetallicRoughness.png"
		},
		{
			"mimeType":"image/png",
			"name":"T_Atlas_01_BC",
			"uri":"T_Atlas_01_BC.png"
		},
		{
			"mimeType":"image/png",
			"name":"T_Atlas_Road_01_BC",
			"uri":"T_Atlas_Road_01_BC.png"
		},
		{
			"mimeType":"image/png",
			"name":"T_Atlas_03_BC",
			"uri":"T_Atlas_03_BC.png"
		},
		{
			"mimeType":"image/png",
			"name":"T_Atlas_04_BC",
			"uri":"T_Atlas_04_BC.png"
		},
		{
			"mimeType":"image/png",
			"name":"T_Atlas_Road_02_BC",
			"uri":"T_Atlas_Road_02_BC.png"
		},
		{
			"mimeType":"image/png",
			"name":"T_Atlas_Road_04_BC",
			"uri":"T_Atlas_Road_04_BC.png"
		},
		{
			"mimeType":"image/png",
			"name":"MI_Atlas_Road_04_E_Emissive",
			"uri":"MI_Atlas_Road_04_E_Emissive.png"
		},
		{
			"mimeType":"image/png",
			"name":"MI_Atlas_Road_03_E_Emissive",
			"uri":"MI_Atlas_Road_03_E_Emissive.png"
		},
		{
			"mimeType":"image/png",
			"name":"MI_Atlas_Road_02_E_Emissive",
			"uri":"MI_Atlas_Road_02_E_Emissive.png"
		},
		{
			"mimeType":"image/png",
			"name":"MI_Atlas_Road_01_E_Emissive",
			"uri":"MI_Atlas_Road_01_E_Emissive.png"
		}
	],
	"accessors":[
		{
			"bufferView":0,
			"componentType":5126,
			"count":2122002,
			"max":[
				192.36087036132812,
				30.765193939208984,
				195.48915100097656
			],
			"min":[
				-171.58212280273438,
				-0.14888104796409607,
				-143.5260467529297
			],
			"type":"VEC3"
		},
		{
			"bufferView":1,
			"componentType":5126,
			"count":2122002,
			"type":"VEC3"
		},
		{
			"bufferView":2,
			"componentType":5126,
			"count":2122002,
			"type":"VEC2"
		},
		{
			"bufferView":3,
			"componentType":5126,
			"count":2122002,
			"type":"VEC2"
		},
		{
			"bufferView":4,
			"componentType":5125,
			"count":2940492,
			"type":"SCALAR"
		},
		{
			"bufferView":5,
			"componentType":5126,
			"count":340880,
			"max":[
				198.7082977294922,
				8.300000190734863,
				192.21868896484375
			],
			"min":[
				-196.80038452148438,
				-0.500001072883606,
				-155.29010009765625
			],
			"type":"VEC3"
		},
		{
			"bufferView":6,
			"componentType":5126,
			"count":340880,
			"type":"VEC3"
		},
		{
			"bufferView":7,
			"componentType":5126,
			"count":340880,
			"type":"VEC2"
		},
		{
			"bufferView":8,
			"componentType":5126,
			"count":340880,
			"type":"VEC2"
		},
		{
			"bufferView":9,
			"componentType":5125,
			"count":564930,
			"type":"SCALAR"
		},
		{
			"bufferView":10,
			"componentType":5126,
			"count":6672228,
			"max":[
				298.5634765625,
				30.765193939208984,
				222.555419921875
			],
			"min":[
				-221.6459197998047,
				-0.3494052290916443,
				-233.6542205810547
			],
			"type":"VEC3"
		},
		{
			"bufferView":11,
			"componentType":5126,
			"count":6672228,
			"type":"VEC3"
		},
		{
			"bufferView":12,
			"componentType":5126,
			"count":6672228,
			"type":"VEC2"
		},
		{
			"bufferView":13,
			"componentType":5126,
			"count":6672228,
			"type":"VEC2"
		},
		{
			"bufferView":14,
			"componentType":5125,
			"count":9103044,
			"type":"SCALAR"
		},
		{
			"bufferView":15,
			"componentType":5126,
			"count":1121231,
			"max":[
				198.70606994628906,
				8.501749992370605,
				192.216552734375
			],
			"min":[
				-196.88230895996094,
				-0.500001072883606,
				-155.37191772460938
			],
			"type":"VEC3"
		},
		{
			"bufferView":16,
			"componentType":5126,
			"count":1121231,
			"type":"VEC3"
		},
		{
			"bufferView":17,
			"componentType":5126,
			"count":1121231,
			"type":"VEC2"
		},
		{
			"bufferView":18,
			"componentType":5126,
			"count":1121231,
			"type":"VEC2"
		},
		{
			"bufferView":19,
			"componentType":5125,
			"count":1465362,
			"type":"SCALAR"
		},
		{
			"bufferView":20,
			"componentType":5126,
			"count":1517228,
			"max":[
				206.37831115722656,
				31.674373626708984,
				176.688232421875
			],
			"min":[
				-197.97897338867188,
				-0.12958325445652008,
				-161.48155212402344
			],
			"type":"VEC3"
		},
		{
			"bufferView":21,
			"componentType":5126,
			"count":1517228,
			"type":"VEC3"
		},
		{
			"bufferView":22,
			"componentType":5126,
			"count":1517228,
			"type":"VEC2"
		},
		{
			"bufferView":23,
			"componentType":5126,
			"count":1517228,
			"type":"VEC2"
		},
		{
			"bufferView":24,
			"componentType":5125,
			"count":2137428,
			"type":"SCALAR"
		},
		{
			"bufferView":25,
			"componentType":5126,
			"count":2785200,
			"max":[
				190.66046142578125,
				30.765193939208984,
				195.34500122070312
			],
			"min":[
				-179.36474609375,
				-0.1132529079914093,
				-143.53895568847656
			],
			"type":"VEC3"
		},
		{
			"bufferView":26,
			"componentType":5126,
			"count":2785200,
			"type":"VEC3"
		},
		{
			"bufferView":27,
			"componentType":5126,
			"count":2785200,
			"type":"VEC2"
		},
		{
			"bufferView":28,
			"componentType":5126,
			"count":2785200,
			"type":"VEC2"
		},
		{
			"bufferView":29,
			"componentType":5125,
			"count":3988032,
			"type":"SCALAR"
		},
		{
			"bufferView":30,
			"componentType":5126,
			"count":23099,
			"max":[
				196.59947204589844,
				8.300000190734863,
				169.79177856445312
			],
			"min":[
				-158.2004852294922,
				-0.500001072883606,
				-151.68991088867188
			],
			"type":"VEC3"
		},
		{
			"bufferView":31,
			"componentType":5126,
			"count":23099,
			"type":"VEC3"
		},
		{
			"bufferView":32,
			"componentType":5126,
			"count":23099,
			"type":"VEC2"
		},
		{
			"bufferView":33,
			"componentType":5126,
			"count":23099,
			"type":"VEC2"
		},
		{
			"bufferView":34,
			"componentType":5123,
			"count":34254,
			"type":"SCALAR"
		},
		{
			"bufferView":35,
			"componentType":5126,
			"count":5106,
			"max":[
				174.29945373535156,
				8.300000190734863,
				169.7919158935547
			],
			"min":[
				-194.90037536621094,
				-0.500001072883606,
				-153.39002990722656
			],
			"type":"VEC3"
		},
		{
			"bufferView":36,
			"componentType":5126,
			"count":5106,
			"type":"VEC3"
		},
		{
			"bufferView":37,
			"componentType":5126,
			"count":5106,
			"type":"VEC2"
		},
		{
			"bufferView":38,
			"componentType":5126,
			"count":5106,
			"type":"VEC2"
		},
		{
			"bufferView":39,
			"componentType":5123,
			"count":7248,
			"type":"SCALAR"
		},
		{
			"bufferView":40,
			"componentType":5126,
			"count":28213,
			"max":[
				169.5607147216797,
				9.491410255432129,
				187.07077026367188
			],
			"min":[
				-105.50748443603516,
				0.24998317658901215,
				-117.70562744140625
			],
			"type":"VEC3"
		},
		{
			"bufferView":41,
			"componentType":5126,
			"count":28213,
			"type":"VEC3"
		},
		{
			"bufferView":42,
			"componentType":5126,
			"count":28213,
			"type":"VEC2"
		},
		{
			"bufferView":43,
			"componentType":5126,
			"count":28213,
			"type":"VEC2"
		},
		{
			"bufferView":44,
			"componentType":5123,
			"count":35712,
			"type":"SCALAR"
		},
		{
			"bufferView":45,
			"componentType":5126,
			"count":24181,
			"max":[
				142.74850463867188,
				9.491312026977539,
				103.1380844116211
			],
			"min":[
				-183.19068908691406,
				0.24998925626277924,
				-132.41732788085938
			],
			"type":"VEC3"
		},
		{
			"bufferView":46,
			"componentType":5126,
			"count":24181,
			"type":"VEC3"
		},
		{
			"bufferView":47,
			"componentType":5126,
			"count":24181,
			"type":"VEC2"
		},
		{
			"bufferView":48,
			"componentType":5126,
			"count":24181,
			"type":"VEC2"
		},
		{
			"bufferView":49,
			"componentType":5123,
			"count":30684,
			"type":"SCALAR"
		},
		{
			"bufferView":50,
			"componentType":5126,
			"count":110935,
			"max":[
				193.56040954589844,
				9.491405487060547,
				175.20074462890625
			],
			"min":[
				-195.20745849609375,
				0.24996577203273773,
				-153.6970977783203
			],
			"type":"VEC3"
		},
		{
			"bufferView":51,
			"componentType":5126,
			"count":110935,
			"type":"VEC3"
		},
		{
			"bufferView":52,
			"componentType":5126,
			"count":110935,
			"type":"VEC2"
		},
		{
			"bufferView":53,
			"componentType":5126,
			"count":110935,
			"type":"VEC2"
		},
		{
			"bufferView":54,
			"componentType":5125,
			"count":140292,
			"type":"SCALAR"
		},
		{
			"bufferView":55,
			"componentType":5126,
			"count":11078,
			"max":[
				190.63609313964844,
				6.104991912841797,
				184.14645385742188
			],
			"min":[
				-196.2370147705078,
				3.027205467224121,
				-154.72665405273438
			],
			"type":"VEC3"
		},
		{
			"bufferView":56,
			"componentType":5126,
			"count":11078,
			"type":"VEC3"
		},
		{
			"bufferView":57,
			"componentType":5126,
			"count":11078,
			"type":"VEC2"
		},
		{
			"bufferView":58,
			"componentType":5126,
			"count":11078,
			"type":"VEC2"
		},
		{
			"bufferView":59,
			"componentType":5123,
			"count":16128,
			"type":"SCALAR"
		}
	],
	"bufferViews":[
		{
			"buffer":0,
			"byteLength":25464024,
			"byteOffset":0,
			"target":34962
		},
		{
			"buffer":0,
			"byteLength":25464024,
			"byteOffset":25464024,
			"target":34962
		},
		{
			"buffer":0,
			"byteLength":16976016,
			"byteOffset":50928048,
			"target":34962
		},
		{
			"buffer":0,
			"byteLength":16976016,
			"byteOffset":67904064,
			"target":34962
		},
		{
			"buffer":0,
			"byteLength":11761968,
			"byteOffset":84880080,
			"target":34963
		},
		{
			"buffer":0,
			"byteLength":4090560,
			"byteOffset":96642048,
			"target":34962
		},
		{
			"buffer":0,
			"byteLength":4090560,
			"byteOffset":100732608,
			"target":34962
		},
		{
			"buffer":0,
			"byteLength":2727040,
			"byteOffset":104823168,
			"target":34962
		},
		{
			"buffer":0,
			"byteLength":2727040,
			"byteOffset":107550208,
			"target":34962
		},
		{
			"buffer":0,
			"byteLength":2259720,
			"byteOffset":110277248,
			"target":34963
		},
		{
			"buffer":0,
			"byteLength":80066736,
			"byteOffset":112536968,
			"target":34962
		},
		{
			"buffer":0,
			"byteLength":80066736,
			"byteOffset":192603704,
			"target":34962
		},
		{
			"buffer":0,
			"byteLength":53377824,
			"byteOffset":272670440,
			"target":34962
		},
		{
			"buffer":0,
			"byteLength":53377824,
			"byteOffset":326048264,
			"target":34962
		},
		{
			"buffer":0,
			"byteLength":36412176,
			"byteOffset":379426088,
			"target":34963
		},
		{
			"buffer":0,
			"byteLength":13454772,
			"byteOffset":415838264,
			"target":34962
		},
		{
			"buffer":0,
			"byteLength":13454772,
			"byteOffset":429293036,
			"target":34962
		},
		{
			"buffer":0,
			"byteLength":8969848,
			"byteOffset":442747808,
			"target":34962
		},
		{
			"buffer":0,
			"byteLength":8969848,
			"byteOffset":451717656,
			"target":34962
		},
		{
			"buffer":0,
			"byteLength":5861448,
			"byteOffset":460687504,
			"target":34963
		},
		{
			"buffer":0,
			"byteLength":18206736,
			"byteOffset":466548952,
			"target":34962
		},
		{
			"buffer":0,
			"byteLength":18206736,
			"byteOffset":484755688,
			"target":34962
		},
		{
			"buffer":0,
			"byteLength":12137824,
			"byteOffset":502962424,
			"target":34962
		},
		{
			"buffer":0,
			"byteLength":12137824,
			"byteOffset":515100248,
			"target":34962
		},
		{
			"buffer":0,
			"byteLength":8549712,
			"byteOffset":527238072,
			"target":34963
		},
		{
			"buffer":0,
			"byteLength":33422400,
			"byteOffset":535787784,
			"target":34962
		},
		{
			"buffer":0,
			"byteLength":33422400,
			"byteOffset":569210184,
			"target":34962
		},
		{
			"buffer":0,
			"byteLength":22281600,
			"byteOffset":602632584,
			"target":34962
		},
		{
			"buffer":0,
			"byteLength":22281600,
			"byteOffset":624914184,
			"target":34962
		},
		{
			"buffer":0,
			"byteLength":15952128,
			"byteOffset":647195784,
			"target":34963
		},
		{
			"buffer":0,
			"byteLength":277188,
			"byteOffset":663147912,
			"target":34962
		},
		{
			"buffer":0,
			"byteLength":277188,
			"byteOffset":663425100,
			"target":34962
		},
		{
			"buffer":0,
			"byteLength":184792,
			"byteOffset":663702288,
			"target":34962
		},
		{
			"buffer":0,
			"byteLength":184792,
			"byteOffset":663887080,
			"target":34962
		},
		{
			"buffer":0,
			"byteLength":68508,
			"byteOffset":664071872,
			"target":34963
		},
		{
			"buffer":0,
			"byteLength":61272,
			"byteOffset":664140380,
			"target":34962
		},
		{
			"buffer":0,
			"byteLength":61272,
			"byteOffset":664201652,
			"target":34962
		},
		{
			"buffer":0,
			"byteLength":40848,
			"byteOffset":664262924,
			"target":34962
		},
		{
			"buffer":0,
			"byteLength":40848,
			"byteOffset":664303772,
			"target":34962
		},
		{
			"buffer":0,
			"byteLength":14496,
			"byteOffset":664344620,
			"target":34963
		},
		{
			"buffer":0,
			"byteLength":338556,
			"byteOffset":664359116,
			"target":34962
		},
		{
			"buffer":0,
			"byteLength":338556,
			"byteOffset":664697672,
			"target":34962
		},
		{
			"buffer":0,
			"byteLength":225704,
			"byteOffset":665036228,
			"target":34962
		},
		{
			"buffer":0,
			"byteLength":225704,
			"byteOffset":665261932,
			"target":34962
		},
		{
			"buffer":0,
			"byteLength":71424,
			"byteOffset":665487636,
			"target":34963
		},
		{
			"buffer":0,
			"byteLength":290172,
			"byteOffset":665559060,
			"target":34962
		},
		{
			"buffer":0,
			"byteLength":290172,
			"byteOffset":665849232,
			"target":34962
		},
		{
			"buffer":0,
			"byteLength":193448,
			"byteOffset":666139404,
			"target":34962
		},
		{
			"buffer":0,
			"byteLength":193448,
			"byteOffset":666332852,
			"target":34962
		},
		{
			"buffer":0,
			"byteLength":61368,
			"byteOffset":666526300,
			"target":34963
		},
		{
			"buffer":0,
			"byteLength":1331220,
			"byteOffset":666587668,
			"target":34962
		},
		{
			"buffer":0,
			"byteLength":1331220,
			"byteOffset":667918888,
			"target":34962
		},
		{
			"buffer":0,
			"byteLength":887480,
			"byteOffset":669250108,
			"target":34962
		},
		{
			"buffer":0,
			"byteLength":887480,
			"byteOffset":670137588,
			"target":34962
		},
		{
			"buffer":0,
			"byteLength":561168,
			"byteOffset":671025068,
			"target":34963
		},
		{
			"buffer":0,
			"byteLength":132936,
			"byteOffset":671586236,
			"target":34962
		},
		{
			"buffer":0,
			"byteLength":132936,
			"byteOffset":671719172,
			"target":34962
		},
		{
			"buffer":0,
			"byteLength":88624,
			"byteOffset":671852108,
			"target":34962
		},
		{
			"buffer":0,
			"byteLength":88624,
			"byteOffset":671940732,
			"target":34962
		},
		{
			"buffer":0,
			"byteLength":32256,
			"byteOffset":672029356,
			"target":34963
		}
	],
	"samplers":[
		{
			"magFilter":9729,
			"minFilter":9987
		}
	],
	"buffers":[
		{
			"byteLength":672061612,
			"uri":"Map2.bin"
		}
	]
}
